<?plantuml 1.2026.2?><svg xmlns="http://www.w3.org/2000/svg" xmlns:xlink="http://www.w3.org/1999/xlink" contentStyleType="text/css" data-diagram-type="CLASS" height="993px" preserveAspectRatio="none" style="width:1575px;height:993px;background:#FFFFFF;" version="1.1" viewBox="0 0 1575 993" width="1575px" zoomAndPan="magnify"><rect width="100%" height="100%" fill="#ffffff"/><title>QPitch 2.0 &#8212; principal classes</title><defs/><g><g class="title" data-source-line="2"><text fill="#000000" font-family="sans-serif" font-size="14" font-weight="bold" lengthAdjust="spacing" textLength="205.2952" x="678.103" y="24.9659">QPitch 2.0 &#8212; principal classes</text></g><!--class AudioProcessor--><g class="entity" data-qualified-name="AudioProcessor" data-source-line="4" id="ent0002"><rect fill="#E8F4F4" height="30" rx="2.5" ry="2.5" style="stroke:#477678;stroke-width:0.5;" width="167.6755" x="865.16" y="303.3379"/><ellipse cx="879.16" cy="318.3379" fill="#ADD1B2" rx="10" ry="10" style="stroke:#181818;stroke-width:1;"/><path d="M878.5663,323.4785 Q877.1288,323.4785 876.1913,322.8692 Q875.2694,322.2598 874.8163,321.1504 Q874.3631,320.041 874.3631,318.5567 Q874.3631,316.8848 874.8944,315.6973 Q875.4413,314.4942 876.4881,313.8535 Q877.5506,313.1973 879.0975,313.1973 Q879.8163,313.1973 880.3631,313.3535 Q880.9256,313.4942 881.5038,313.7754 L880.8319,315.4473 Q880.3163,315.1817 879.8631,315.0879 Q879.4256,314.9785 879.0194,314.9785 Q878.0506,314.9785 877.4725,315.416 Q876.91,315.8535 876.66,316.6348 Q876.4256,317.416 876.4256,318.4629 Q876.4256,320.1192 877.0038,320.916 Q877.5975,321.6973 878.91,321.6973 Q879.3944,321.6973 879.91,321.5723 Q880.4256,321.4473 881.1131,321.1348 L881.1131,322.9629 Q880.5038,323.2285 879.8475,323.3535 Q879.2069,323.4785 878.5663,323.4785 Z " fill="#000000"/><text fill="#000000" font-family="sans-serif" font-size="14" lengthAdjust="spacing" textLength="137.6755" x="892.16" y="323.7699">juce::AudioProcessor</text></g><!--class Listener--><g class="entity" data-qualified-name="Listener" data-source-line="5" id="ent0003"><rect fill="#E8F4F4" height="30" rx="2.5" ry="2.5" style="stroke:#477678;stroke-width:0.5;" width="306.1209" x="1067.94" y="303.3379"/><ellipse cx="1081.94" cy="318.3379" fill="#B4A7E5" rx="10" ry="10" style="stroke:#181818;stroke-width:1;"/><path d="M1079.2056,323.3379 L1079.2056,321.9317 L1081.1431,321.7129 L1081.1431,314.9629 L1079.2056,314.7442 L1079.2056,313.3379 L1085.0806,313.3379 L1085.0806,314.7442 L1083.0963,314.9629 L1083.0963,321.7129 L1085.0806,321.9317 L1085.0806,323.3379 L1079.2056,323.3379 Z " fill="#000000"/><text fill="#000000" font-family="sans-serif" font-size="14" font-style="italic" lengthAdjust="spacing" textLength="276.1209" x="1094.94" y="323.7699">juce::AudioProcessorValueTreeState::Listener</text></g><!--class AudioProcessorEditor--><g class="entity" data-qualified-name="AudioProcessorEditor" data-source-line="6" id="ent0004"><rect fill="#E8F4F4" height="30" rx="2.5" ry="2.5" style="stroke:#477678;stroke-width:0.5;" width="206.9873" x="528.51" y="47.0679"/><ellipse cx="542.51" cy="62.0679" fill="#ADD1B2" rx="10" ry="10" style="stroke:#181818;stroke-width:1;"/><path d="M541.9163,67.2085 Q540.4788,67.2085 539.5413,66.5992 Q538.6194,65.9898 538.1663,64.8804 Q537.7131,63.771 537.7131,62.2867 Q537.7131,60.6148 538.2444,59.4273 Q538.7913,58.2242 539.8381,57.5835 Q540.9006,56.9273 542.4475,56.9273 Q543.1663,56.9273 543.7131,57.0835 Q544.2756,57.2242 544.8538,57.5054 L544.1819,59.1773 Q543.6663,58.9117 543.2131,58.8179 Q542.7756,58.7085 542.3694,58.7085 Q541.4006,58.7085 540.8225,59.146 Q540.26,59.5835 540.01,60.3648 Q539.7756,61.146 539.7756,62.1929 Q539.7756,63.8492 540.3538,64.646 Q540.9475,65.4273 542.26,65.4273 Q542.7444,65.4273 543.26,65.3023 Q543.7756,65.1773 544.4631,64.8648 L544.4631,66.6929 Q543.8538,66.9585 543.1975,67.0835 Q542.5569,67.2085 541.9163,67.2085 Z " fill="#000000"/><text fill="#000000" font-family="sans-serif" font-size="14" lengthAdjust="spacing" textLength="176.9873" x="555.51" y="67.4999">juce::AudioProcessorEditor</text></g><!--class Timer--><g class="entity" data-qualified-name="Timer" data-source-line="7" id="ent0005"><rect fill="#E8F4F4" height="30" rx="2.5" ry="2.5" style="stroke:#477678;stroke-width:0.5;" width="102.5477" x="770.73" y="47.0679"/><ellipse cx="784.73" cy="62.0679" fill="#ADD1B2" rx="10" ry="10" style="stroke:#181818;stroke-width:1;"/><path d="M784.1363,67.2085 Q782.6988,67.2085 781.7613,66.5992 Q780.8394,65.9898 780.3863,64.8804 Q779.9331,63.771 779.9331,62.2867 Q779.9331,60.6148 780.4644,59.4273 Q781.0113,58.2242 782.0581,57.5835 Q783.1206,56.9273 784.6675,56.9273 Q785.3863,56.9273 785.9331,57.0835 Q786.4956,57.2242 787.0738,57.5054 L786.4019,59.1773 Q785.8863,58.9117 785.4331,58.8179 Q784.9956,58.7085 784.5894,58.7085 Q783.6206,58.7085 783.0425,59.146 Q782.48,59.5835 782.23,60.3648 Q781.9956,61.146 781.9956,62.1929 Q781.9956,63.8492 782.5738,64.646 Q783.1675,65.4273 784.48,65.4273 Q784.9644,65.4273 785.48,65.3023 Q785.9956,65.1773 786.6831,64.8648 L786.6831,66.6929 Q786.0738,66.9585 785.4175,67.0835 Q784.7769,67.2085 784.1363,67.2085 Z " fill="#000000"/><text fill="#000000" font-family="sans-serif" font-size="14" lengthAdjust="spacing" textLength="72.5477" x="797.73" y="67.4999">juce::Timer</text></g><!--class QPitchAudioProcessor--><g class="entity" data-qualified-name="QPitchAudioProcessor" data-source-line="8" id="ent0006"><rect fill="#E8F4F4" height="247.7471" rx="2.5" ry="2.5" style="stroke:#477678;stroke-width:0.5;" width="325.8308" x="564.09" y="432.4079"/><ellipse cx="649.6387" cy="447.4079" fill="#ADD1B2" rx="10" ry="10" style="stroke:#181818;stroke-width:1;"/><path d="M649.0449,452.5485 Q647.6074,452.5485 646.6699,451.9392 Q645.7481,451.3298 645.2949,450.2204 Q644.8418,449.111 644.8418,447.6267 Q644.8418,445.9548 645.3731,444.7673 Q645.9199,443.5642 646.9668,442.9235 Q648.0293,442.2673 649.5762,442.2673 Q650.2949,442.2673 650.8418,442.4235 Q651.4043,442.5642 651.9824,442.8454 L651.3106,444.5173 Q650.7949,444.2517 650.3418,444.1579 Q649.9043,444.0485 649.4981,444.0485 Q648.5293,444.0485 647.9512,444.486 Q647.3887,444.9235 647.1387,445.7048 Q646.9043,446.486 646.9043,447.5329 Q646.9043,449.1892 647.4824,449.986 Q648.0762,450.7673 649.3887,450.7673 Q649.8731,450.7673 650.3887,450.6423 Q650.9043,450.5173 651.5918,450.2048 L651.5918,452.0329 Q650.9824,452.2985 650.3262,452.4235 Q649.6856,452.5485 649.0449,452.5485 Z " fill="#000000"/><text fill="#000000" font-family="sans-serif" font-size="14" lengthAdjust="spacing" textLength="146.7335" x="668.6387" y="452.8399">QPitchAudioProcessor</text><line style="stroke:#477678;stroke-width:0.5;" x1="565.09" x2="888.9208" y1="462.4079" y2="462.4079"/><g data-visibility-modifier="PUBLIC_METHOD"><ellipse cx="575.09" cy="477.4419" fill="#84BE84" rx="3" ry="3" style="stroke:#038048;stroke-width:1;"/></g><text fill="#000000" font-family="sans-serif" font-size="14" lengthAdjust="spacing" textLength="300.8308" x="583.09" y="481.3739">prepareToPlay(sampleRate, samplesPerBlock)</text><g data-visibility-modifier="PUBLIC_METHOD"><ellipse cx="575.09" cy="496.5098" fill="#84BE84" rx="3" ry="3" style="stroke:#038048;stroke-width:1;"/></g><text fill="#000000" font-family="sans-serif" font-size="14" lengthAdjust="spacing" textLength="171.5553" x="583.09" y="500.4418">processBlock(buffer, midi)</text><g data-visibility-modifier="PUBLIC_METHOD"><ellipse cx="575.09" cy="515.5777" fill="#84BE84" rx="3" ry="3" style="stroke:#038048;stroke-width:1;"/></g><text fill="#000000" font-family="sans-serif" font-size="14" lengthAdjust="spacing" textLength="234.1771" x="583.09" y="519.5097">processBlockBypassed(buffer, midi)</text><g data-visibility-modifier="PUBLIC_METHOD"><ellipse cx="575.09" cy="534.6456" fill="#84BE84" rx="3" ry="3" style="stroke:#038048;stroke-width:1;"/></g><text fill="#000000" font-family="sans-serif" font-size="14" lengthAdjust="spacing" textLength="172.0734" x="583.09" y="538.5776">getStateInformation(data)</text><g data-visibility-modifier="PUBLIC_METHOD"><ellipse cx="575.09" cy="553.7135" fill="#84BE84" rx="3" ry="3" style="stroke:#038048;stroke-width:1;"/></g><text fill="#000000" font-family="sans-serif" font-size="14" lengthAdjust="spacing" textLength="202.3553" x="583.09" y="557.6455">setStateInformation(data, size)</text><g data-visibility-modifier="PUBLIC_METHOD"><ellipse cx="575.09" cy="572.7815" fill="#84BE84" rx="3" ry="3" style="stroke:#038048;stroke-width:1;"/></g><text fill="#000000" font-family="sans-serif" font-size="14" lengthAdjust="spacing" textLength="192.0793" x="583.09" y="576.7134">parameterChanged(id, value)</text><g data-visibility-modifier="PUBLIC_METHOD"><ellipse cx="575.09" cy="591.8494" fill="#84BE84" rx="3" ry="3" style="stroke:#038048;stroke-width:1;"/></g><text fill="#000000" font-family="sans-serif" font-size="14" lengthAdjust="spacing" textLength="288.2729" x="583.09" y="595.7814">setCustomNoteEnabled(noteClass, enabled)</text><g data-visibility-modifier="PUBLIC_METHOD"><ellipse cx="575.09" cy="610.9173" fill="#84BE84" rx="3" ry="3" style="stroke:#038048;stroke-width:1;"/></g><text fill="#000000" font-family="sans-serif" font-size="14" lengthAdjust="spacing" textLength="181.3413" x="583.09" y="614.8493">resetCustomNotesToScale()</text><g data-visibility-modifier="PUBLIC_METHOD"><ellipse cx="575.09" cy="629.9852" fill="#84BE84" rx="3" ry="3" style="stroke:#038048;stroke-width:1;"/></g><text fill="#000000" font-family="sans-serif" font-size="14" lengthAdjust="spacing" textLength="147.0974" x="583.09" y="633.9172">getDetectedHz() : float</text><g data-visibility-modifier="PUBLIC_METHOD"><ellipse cx="575.09" cy="649.0531" fill="#84BE84" rx="3" ry="3" style="stroke:#038048;stroke-width:1;"/></g><text fill="#000000" font-family="sans-serif" font-size="14" lengthAdjust="spacing" textLength="134.7075" x="583.09" y="652.9851">getOutputHz() : float</text><g data-visibility-modifier="PUBLIC_METHOD"><ellipse cx="575.09" cy="668.121" fill="#84BE84" rx="3" ry="3" style="stroke:#038048;stroke-width:1;"/></g><text fill="#000000" font-family="sans-serif" font-size="14" lengthAdjust="spacing" textLength="130.7315" x="583.09" y="672.053">getTargetHz() : float</text></g><!--class QPitchAudioProcessorEditor--><g class="entity" data-qualified-name="QPitchAudioProcessorEditor" data-source-line="21" id="ent0007"><rect fill="#E8F4F4" height="95.2038" rx="2.5" ry="2.5" style="stroke:#477678;stroke-width:0.5;" width="216.0453" x="618.98" y="138.0679"/><ellipse cx="632.98" cy="153.0679" fill="#ADD1B2" rx="10" ry="10" style="stroke:#181818;stroke-width:1;"/><path d="M632.3863,158.2085 Q630.9488,158.2085 630.0113,157.5992 Q629.0894,156.9898 628.6363,155.8804 Q628.1831,154.771 628.1831,153.2867 Q628.1831,151.6148 628.7144,150.4273 Q629.2613,149.2242 630.3081,148.5835 Q631.3706,147.9273 632.9175,147.9273 Q633.6363,147.9273 634.1831,148.0835 Q634.7456,148.2242 635.3238,148.5054 L634.6519,150.1773 Q634.1363,149.9117 633.6831,149.8179 Q633.2456,149.7085 632.8394,149.7085 Q631.8706,149.7085 631.2925,150.146 Q630.73,150.5835 630.48,151.3648 Q630.2456,152.146 630.2456,153.1929 Q630.2456,154.8492 630.8238,155.646 Q631.4175,156.4273 632.73,156.4273 Q633.2144,156.4273 633.73,156.3023 Q634.2456,156.1773 634.9331,155.8648 L634.9331,157.6929 Q634.3238,157.9585 633.6675,158.0835 Q633.0269,158.2085 632.3863,158.2085 Z " fill="#000000"/><text fill="#000000" font-family="sans-serif" font-size="14" lengthAdjust="spacing" textLength="186.0453" x="645.98" y="158.4999">QPitchAudioProcessorEditor</text><line style="stroke:#477678;stroke-width:0.5;" x1="619.98" x2="834.0253" y1="168.0679" y2="168.0679"/><g data-visibility-modifier="PUBLIC_METHOD"><ellipse cx="629.98" cy="183.1019" fill="#84BE84" rx="3" ry="3" style="stroke:#038048;stroke-width:1;"/></g><text fill="#000000" font-family="sans-serif" font-size="14" lengthAdjust="spacing" textLength="55.4818" x="637.98" y="187.0339">resized()</text><g data-visibility-modifier="PUBLIC_METHOD"><ellipse cx="629.98" cy="202.1698" fill="#84BE84" rx="3" ry="3" style="stroke:#038048;stroke-width:1;"/></g><text fill="#000000" font-family="sans-serif" font-size="14" lengthAdjust="spacing" textLength="98.7276" x="637.98" y="206.1018">paint(graphics)</text><g data-visibility-modifier="PUBLIC_METHOD"><ellipse cx="629.98" cy="221.2377" fill="#84BE84" rx="3" ry="3" style="stroke:#038048;stroke-width:1;"/></g><text fill="#000000" font-family="sans-serif" font-size="14" lengthAdjust="spacing" textLength="98.4196" x="637.98" y="225.1697">timerCallback()</text></g><!--class State--><g class="entity" data-qualified-name="State" data-source-line="26" id="ent0008"><rect fill="#E8F4F4" height="30" rx="2.5" ry="2.5" style="stroke:#477678;stroke-width:0.5;" width="266.9911" x="1301.51" y="803.2879"/><ellipse cx="1315.51" cy="818.2879" fill="#ADD1B2" rx="10" ry="10" style="stroke:#181818;stroke-width:1;"/><path d="M1314.9163,823.4285 Q1313.4788,823.4285 1312.5413,822.8192 Q1311.6194,822.2098 1311.1663,821.1004 Q1310.7131,819.991 1310.7131,818.5067 Q1310.7131,816.8348 1311.2444,815.6473 Q1311.7913,814.4442 1312.8381,813.8035 Q1313.9006,813.1473 1315.4475,813.1473 Q1316.1663,813.1473 1316.7131,813.3035 Q1317.2756,813.4442 1317.8538,813.7254 L1317.1819,815.3973 Q1316.6663,815.1317 1316.2131,815.0379 Q1315.7756,814.9285 1315.3694,814.9285 Q1314.4006,814.9285 1313.8225,815.366 Q1313.26,815.8035 1313.01,816.5848 Q1312.7756,817.366 1312.7756,818.4129 Q1312.7756,820.0692 1313.3538,820.866 Q1313.9475,821.6473 1315.26,821.6473 Q1315.7444,821.6473 1316.26,821.5223 Q1316.7756,821.3973 1317.4631,821.0848 L1317.4631,822.9129 Q1316.8538,823.1785 1316.1975,823.3035 Q1315.5569,823.4285 1314.9163,823.4285 Z " fill="#000000"/><text fill="#000000" font-family="sans-serif" font-size="14" lengthAdjust="spacing" textLength="236.9911" x="1328.51" y="823.7199">juce::AudioProcessorValueTreeState</text></g><!--class PitchDetector--><g class="entity" data-qualified-name="PitchDetector" data-source-line="27" id="ent0009"><rect fill="#E8F4F4" height="114.2717" rx="2.5" ry="2.5" style="stroke:#477678;stroke-width:0.5;" width="260.0031" x="7" y="761.1579"/><ellipse cx="88.2017" cy="776.1579" fill="#ADD1B2" rx="10" ry="10" style="stroke:#181818;stroke-width:1;"/><path d="M87.608,781.2985 Q86.1705,781.2985 85.233,780.6892 Q84.3111,780.0798 83.858,778.9704 Q83.4048,777.861 83.4048,776.3767 Q83.4048,774.7048 83.9361,773.5173 Q84.483,772.3142 85.5298,771.6735 Q86.5923,771.0173 88.1392,771.0173 Q88.858,771.0173 89.4048,771.1735 Q89.9673,771.3142 90.5455,771.5954 L89.8736,773.2673 Q89.358,773.0017 88.9048,772.9079 Q88.4673,772.7985 88.0611,772.7985 Q87.0923,772.7985 86.5142,773.236 Q85.9517,773.6735 85.7017,774.4548 Q85.4673,775.236 85.4673,776.2829 Q85.4673,777.9392 86.0455,778.736 Q86.6392,779.5173 87.9517,779.5173 Q88.4361,779.5173 88.9517,779.3923 Q89.4673,779.2673 90.1548,778.9548 L90.1548,780.7829 Q89.5455,781.0485 88.8892,781.1735 Q88.2486,781.2985 87.608,781.2985 Z " fill="#000000"/><text fill="#000000" font-family="sans-serif" font-size="14" lengthAdjust="spacing" textLength="89.5997" x="107.2017" y="781.5899">PitchDetector</text><line style="stroke:#477678;stroke-width:0.5;" x1="8" x2="266.0031" y1="791.1579" y2="791.1579"/><g data-visibility-modifier="PUBLIC_METHOD"><ellipse cx="18" cy="806.1919" fill="#84BE84" rx="3" ry="3" style="stroke:#038048;stroke-width:1;"/></g><text fill="#000000" font-family="sans-serif" font-size="14" lengthAdjust="spacing" textLength="235.0031" x="26" y="810.1239">prepare(sampleRate, maxBlockSize)</text><g data-visibility-modifier="PUBLIC_METHOD"><ellipse cx="18" cy="825.2598" fill="#84BE84" rx="3" ry="3" style="stroke:#038048;stroke-width:1;"/></g><text fill="#000000" font-family="sans-serif" font-size="14" lengthAdjust="spacing" textLength="233.3931" x="26" y="829.1918">setFrequencyRange(minHz, maxHz)</text><g data-visibility-modifier="PUBLIC_METHOD"><ellipse cx="18" cy="844.3277" fill="#84BE84" rx="3" ry="3" style="stroke:#038048;stroke-width:1;"/></g><text fill="#000000" font-family="sans-serif" font-size="14" lengthAdjust="spacing" textLength="225.4131" x="26" y="848.2597">detectPitch(buffer, samples) : float</text><g data-visibility-modifier="PUBLIC_METHOD"><ellipse cx="18" cy="863.3956" fill="#84BE84" rx="3" ry="3" style="stroke:#038048;stroke-width:1;"/></g><text fill="#000000" font-family="sans-serif" font-size="14" lengthAdjust="spacing" textLength="144.9694" x="26" y="867.3276">getConfidence() : float</text></g><!--class ScaleQuantizer--><g class="entity" data-qualified-name="ScaleQuantizer" data-source-line="33" id="ent0010"><rect fill="#E8F4F4" height="114.2717" rx="2.5" ry="2.5" style="stroke:#477678;stroke-width:0.5;" width="203.1633" x="302.42" y="761.1579"/><ellipse cx="350.6098" cy="776.1579" fill="#ADD1B2" rx="10" ry="10" style="stroke:#181818;stroke-width:1;"/><path d="M350.0161,781.2985 Q348.5786,781.2985 347.6411,780.6892 Q346.7192,780.0798 346.2661,778.9704 Q345.813,777.861 345.813,776.3767 Q345.813,774.7048 346.3442,773.5173 Q346.8911,772.3142 347.938,771.6735 Q349.0005,771.0173 350.5473,771.0173 Q351.2661,771.0173 351.813,771.1735 Q352.3755,771.3142 352.9536,771.5954 L352.2817,773.2673 Q351.7661,773.0017 351.313,772.9079 Q350.8755,772.7985 350.4692,772.7985 Q349.5005,772.7985 348.9223,773.236 Q348.3598,773.6735 348.1098,774.4548 Q347.8755,775.236 347.8755,776.2829 Q347.8755,777.9392 348.4536,778.736 Q349.0473,779.5173 350.3598,779.5173 Q350.8442,779.5173 351.3598,779.3923 Q351.8755,779.2673 352.563,778.9548 L352.563,780.7829 Q351.9536,781.0485 351.2973,781.1735 Q350.6567,781.2985 350.0161,781.2985 Z " fill="#000000"/><text fill="#000000" font-family="sans-serif" font-size="14" lengthAdjust="spacing" textLength="98.7836" x="369.6098" y="781.5899">ScaleQuantizer</text><line style="stroke:#477678;stroke-width:0.5;" x1="303.42" x2="504.5833" y1="791.1579" y2="791.1579"/><g data-visibility-modifier="PUBLIC_METHOD"><ellipse cx="313.42" cy="806.1919" fill="#84BE84" rx="3" ry="3" style="stroke:#038048;stroke-width:1;"/></g><text fill="#000000" font-family="sans-serif" font-size="14" lengthAdjust="spacing" textLength="124.4875" x="321.42" y="810.1239">hzToMidi(hz) : float</text><g data-visibility-modifier="PUBLIC_METHOD"><ellipse cx="313.42" cy="825.2598" fill="#84BE84" rx="3" ry="3" style="stroke:#038048;stroke-width:1;"/></g><text fill="#000000" font-family="sans-serif" font-size="14" lengthAdjust="spacing" textLength="141.4415" x="321.42" y="829.1918">midiToHz(note) : float</text><g data-visibility-modifier="PUBLIC_METHOD"><ellipse cx="313.42" cy="844.3277" fill="#84BE84" rx="3" ry="3" style="stroke:#038048;stroke-width:1;"/></g><text fill="#000000" font-family="sans-serif" font-size="14" lengthAdjust="spacing" textLength="178.1633" x="321.42" y="848.2597">setReferenceFrequency(hz)</text><g data-visibility-modifier="PUBLIC_METHOD"><ellipse cx="313.42" cy="863.3956" fill="#84BE84" rx="3" ry="3" style="stroke:#038048;stroke-width:1;"/></g><text fill="#000000" font-family="sans-serif" font-size="14" lengthAdjust="spacing" text-decoration="underline" textLength="105.1676" x="321.42" y="867.3276">getScaleMasks()</text></g><!--class PitchShifter--><g class="entity" data-qualified-name="PitchShifter" data-source-line="39" id="ent0011"><rect fill="#E8F4F4" height="114.2717" rx="2.5" ry="2.5" style="stroke:#477678;stroke-width:0.5;" width="352.0108" x="541" y="761.1579"/><ellipse cx="675.0025" cy="776.1579" fill="#ADD1B2" rx="10" ry="10" style="stroke:#181818;stroke-width:1;"/><path d="M674.4088,781.2985 Q672.9713,781.2985 672.0338,780.6892 Q671.1119,780.0798 670.6588,778.9704 Q670.2057,777.861 670.2057,776.3767 Q670.2057,774.7048 670.7369,773.5173 Q671.2838,772.3142 672.3307,771.6735 Q673.3932,771.0173 674.94,771.0173 Q675.6588,771.0173 676.2057,771.1735 Q676.7682,771.3142 677.3463,771.5954 L676.6744,773.2673 Q676.1588,773.0017 675.7057,772.9079 Q675.2682,772.7985 674.8619,772.7985 Q673.8932,772.7985 673.315,773.236 Q672.7525,773.6735 672.5025,774.4548 Q672.2682,775.236 672.2682,776.2829 Q672.2682,777.9392 672.8463,778.736 Q673.44,779.5173 674.7525,779.5173 Q675.2369,779.5173 675.7525,779.3923 Q676.2682,779.2673 676.9557,778.9548 L676.9557,780.7829 Q676.3463,781.0485 675.69,781.1735 Q675.0494,781.2985 674.4088,781.2985 Z " fill="#000000"/><text fill="#000000" font-family="sans-serif" font-size="14" lengthAdjust="spacing" textLength="76.0057" x="694.0025" y="781.5899">PitchShifter</text><line style="stroke:#477678;stroke-width:0.5;" x1="542" x2="892.0108" y1="791.1579" y2="791.1579"/><g data-visibility-modifier="PUBLIC_METHOD"><ellipse cx="552" cy="806.1919" fill="#84BE84" rx="3" ry="3" style="stroke:#038048;stroke-width:1;"/></g><text fill="#000000" font-family="sans-serif" font-size="14" lengthAdjust="spacing" textLength="301.1388" x="560" y="810.1239">prepare(sampleRate, maxBlockSize, channels)</text><g data-visibility-modifier="PUBLIC_METHOD"><ellipse cx="552" cy="825.2598" fill="#84BE84" rx="3" ry="3" style="stroke:#038048;stroke-width:1;"/></g><text fill="#000000" font-family="sans-serif" font-size="14" lengthAdjust="spacing" textLength="327.0108" x="560" y="829.1918">process(inputs, outputs, samples, ratio, formants)</text><g data-visibility-modifier="PUBLIC_METHOD"><ellipse cx="552" cy="844.3277" fill="#84BE84" rx="3" ry="3" style="stroke:#038048;stroke-width:1;"/></g><text fill="#000000" font-family="sans-serif" font-size="14" lengthAdjust="spacing" textLength="164.4154" x="560" y="848.2597">getLatencySamples() : int</text><g data-visibility-modifier="PUBLIC_METHOD"><ellipse cx="552" cy="863.3956" fill="#84BE84" rx="3" ry="3" style="stroke:#038048;stroke-width:1;"/></g><text fill="#000000" font-family="sans-serif" font-size="14" lengthAdjust="spacing" textLength="41.7338" x="560" y="867.3276">reset()</text></g><!--class RubberBand--><g class="entity" data-qualified-name="RubberBand" data-source-line="45" id="ent0012"><rect fill="#E8F4F4" height="30" rx="2.5" ry="2.5" style="stroke:#477678;stroke-width:0.5;" width="271.905" x="581.05" y="956.4279"/><ellipse cx="595.05" cy="971.4279" fill="#ADD1B2" rx="10" ry="10" style="stroke:#181818;stroke-width:1;"/><path d="M594.4563,976.5685 Q593.0188,976.5685 592.0813,975.9592 Q591.1594,975.3498 590.7063,974.2404 Q590.2531,973.131 590.2531,971.6467 Q590.2531,969.9748 590.7844,968.7873 Q591.3313,967.5842 592.3781,966.9435 Q593.4406,966.2873 594.9875,966.2873 Q595.7063,966.2873 596.2531,966.4435 Q596.8156,966.5842 597.3938,966.8654 L596.7219,968.5373 Q596.2063,968.2717 595.7531,968.1779 Q595.3156,968.0685 594.9094,968.0685 Q593.9406,968.0685 593.3625,968.506 Q592.8,968.9435 592.55,969.7248 Q592.3156,970.506 592.3156,971.5529 Q592.3156,973.2092 592.8938,974.006 Q593.4875,974.7873 594.8,974.7873 Q595.2844,974.7873 595.8,974.6623 Q596.3156,974.5373 597.0031,974.2248 L597.0031,976.0529 Q596.3938,976.3185 595.7375,976.4435 Q595.0969,976.5685 594.4563,976.5685 Z " fill="#000000"/><text fill="#000000" font-family="sans-serif" font-size="14" lengthAdjust="spacing" textLength="241.905" x="608.05" y="976.8599">RubberBand::RubberBandLiveShifter</text></g><!--class Piano--><g class="entity" data-qualified-name="Piano" data-source-line="46" id="ent0013"><rect fill="#E8F4F4" height="48.1358" rx="2.5" ry="2.5" style="stroke:#477678;stroke-width:0.5;" width="205.5313" x="624.24" y="294.2779"/><ellipse cx="638.24" cy="318.3458" fill="#ADD1B2" rx="10" ry="10" style="stroke:#181818;stroke-width:1;"/><path d="M637.6463,323.4865 Q636.2088,323.4865 635.2713,322.8771 Q634.3494,322.2677 633.8963,321.1583 Q633.4431,320.049 633.4431,318.5646 Q633.4431,316.8927 633.9744,315.7052 Q634.5213,314.5021 635.5681,313.8615 Q636.6306,313.2052 638.1775,313.2052 Q638.8963,313.2052 639.4431,313.3615 Q640.0056,313.5021 640.5838,313.7833 L639.9119,315.4552 Q639.3963,315.1896 638.9431,315.0958 Q638.5056,314.9865 638.0994,314.9865 Q637.1306,314.9865 636.5525,315.424 Q635.99,315.8615 635.74,316.6427 Q635.5056,317.424 635.5056,318.4708 Q635.5056,320.1271 636.0838,320.924 Q636.6775,321.7052 637.99,321.7052 Q638.4744,321.7052 638.99,321.5802 Q639.5056,321.4552 640.1931,321.1427 L640.1931,322.9708 Q639.5838,323.2365 638.9275,323.3615 Q638.2869,323.4865 637.6463,323.4865 Z " fill="#000000"/><text fill="#000000" font-family="sans-serif" font-size="14" lengthAdjust="spacing" textLength="96.7956" x="690.6078" y="314.2439">ScaleKeyboard</text><text fill="#000000" font-family="sans-serif" font-size="14" lengthAdjust="spacing" textLength="175.5313" x="651.24" y="333.3118">(editor nested component)</text></g><!--class Attachments--><g class="entity" data-qualified-name="Attachments" data-source-line="47" id="ent0014"><rect fill="#E8F4F4" height="30" rx="2.5" ry="2.5" style="stroke:#477678;stroke-width:0.5;" width="220.3713" x="1321.82" y="372.4079"/><ellipse cx="1335.82" cy="387.4079" fill="#ADD1B2" rx="10" ry="10" style="stroke:#181818;stroke-width:1;"/><path d="M1335.2263,392.5485 Q1333.7888,392.5485 1332.8513,391.9392 Q1331.9294,391.3298 1331.4763,390.2204 Q1331.0231,389.111 1331.0231,387.6267 Q1331.0231,385.9548 1331.5544,384.7673 Q1332.1013,383.5642 1333.1481,382.9235 Q1334.2106,382.2673 1335.7575,382.2673 Q1336.4763,382.2673 1337.0231,382.4235 Q1337.5856,382.5642 1338.1638,382.8454 L1337.4919,384.5173 Q1336.9763,384.2517 1336.5231,384.1579 Q1336.0856,384.0485 1335.6794,384.0485 Q1334.7106,384.0485 1334.1325,384.486 Q1333.57,384.9235 1333.32,385.7048 Q1333.0856,386.486 1333.0856,387.5329 Q1333.0856,389.1892 1333.6638,389.986 Q1334.2575,390.7673 1335.57,390.7673 Q1336.0544,390.7673 1336.57,390.6423 Q1337.0856,390.5173 1337.7731,390.2048 L1337.7731,392.0329 Q1337.1638,392.2985 1336.5075,392.4235 Q1335.8669,392.5485 1335.2263,392.5485 Z " fill="#000000"/><text fill="#000000" font-family="sans-serif" font-size="14" lengthAdjust="spacing" textLength="190.3713" x="1348.82" y="392.8399">JUCE parameter attachments</text></g><g class="entity" data-qualified-name="GMN29" data-source-line="63" id="ent0030"><path d="M927.81,784.6879 L927.81,851.8917 A0,0 0 0 0 927.81,851.8917 L1266.1888,851.8917 A0,0 0 0 0 1266.1888,851.8917 L1266.1888,794.6879 L1256.1888,784.6879 L1053.93,784.6879 L890.37,672.0879 L1045.93,784.6879 L927.81,784.6879 A0,0 0 0 0 927.81,784.6879" fill="#F3F9DB" style="stroke:#80934B;stroke-width:0.5;"/><path d="M1256.1888,784.6879 L1256.1888,794.6879 L1266.1888,794.6879 L1256.1888,784.6879" fill="#F3F9DB" style="stroke:#80934B;stroke-width:0.5;"/><text fill="#000000" font-family="sans-serif" font-size="14" lengthAdjust="spacing" textLength="279.9289" x="933.81" y="804.6539">Owns dry, shifted and delayed-dry buffers.</text><text fill="#000000" font-family="sans-serif" font-size="14" lengthAdjust="spacing" textLength="311.7228" x="933.81" y="823.7218">Publishes pitch readouts through atomic floats.</text><text fill="#000000" font-family="sans-serif" font-size="14" lengthAdjust="spacing" textLength="317.3788" x="933.81" y="842.7897">Target selection and smoothing live in this class.</text></g><!--reverse link AudioProcessor to QPitchAudioProcessor--><g class="link" data-entity-1="ent0002" data-entity-2="ent0006" data-link-type="extension" data-source-line="48" id="lnk15"><path codeLine="48" d="M936.3654,350.4385 C929.1054,367.8285 922.32,380.7379 905,402.4079 C896.99,412.4379 888.26,422.3079 879.1,431.9079" fill="none" id="AudioProcessor-backto-QPitchAudioProcessor" style="stroke:#46565D;stroke-width:1;"/><polygon fill="none" points="943.3,333.8279,930.8285,348.127,941.9023,352.75,943.3,333.8279" style="stroke:#46565D;stroke-width:1;"/></g><!--reverse link Listener to QPitchAudioProcessor--><g class="link" data-entity-1="ent0003" data-entity-2="ent0006" data-link-type="extension" data-source-line="49" id="lnk16"><path codeLine="49" d="M1174.5973,341.5051 C1115.9473,369.5151 998.97,425.3879 890.27,477.2979" fill="none" id="Listener-backto-QPitchAudioProcessor" style="stroke:#46565D;stroke-width:1;stroke-dasharray:7,7;"/><polygon fill="none" points="1190.84,333.7479,1172.0115,336.0909,1177.183,346.9193,1190.84,333.7479" style="stroke:#46565D;stroke-width:1;"/></g><!--reverse link AudioProcessorEditor to QPitchAudioProcessorEditor--><g class="link" data-entity-1="ent0004" data-entity-2="ent0007" data-link-type="extension" data-source-line="50" id="lnk17"><path codeLine="50" d="M654.3507,91.6831 C665.9507,106.5331 673.57,116.2779 690.35,137.7579" fill="none" id="AudioProcessorEditor-backto-QPitchAudioProcessorEditor" style="stroke:#46565D;stroke-width:1;"/><polygon fill="none" points="643.27,77.4979,649.6223,95.3766,659.0791,87.9895,643.27,77.4979" style="stroke:#46565D;stroke-width:1;"/></g><!--reverse link Timer to QPitchAudioProcessorEditor--><g class="link" data-entity-1="ent0005" data-entity-2="ent0007" data-link-type="extension" data-source-line="51" id="lnk18"><path codeLine="51" d="M799.6493,91.6831 C788.0493,106.5331 780.44,116.2779 763.65,137.7579" fill="none" id="Timer-backto-QPitchAudioProcessorEditor" style="stroke:#46565D;stroke-width:1;"/><polygon fill="none" points="810.73,77.4979,794.9209,87.9895,804.3777,95.3766,810.73,77.4979" style="stroke:#46565D;stroke-width:1;"/></g><!--reverse link QPitchAudioProcessor to State--><g class="link" data-entity-1="ent0006" data-entity-2="ent0008" data-link-type="composition" data-source-line="52" id="lnk19"><path codeLine="52" d="M901.6524,620.953 C1012.7024,661.493 1151.64,712.3279 1284,761.1579 C1322.18,775.2379 1365.74,791.4479 1396.23,802.8179" fill="none" id="QPitchAudioProcessor-backto-State" style="stroke:#46565D;stroke-width:1;"/><polygon fill="#46565D" points="890.38,616.8379,894.6445,622.6529,901.6524,620.953,897.3879,615.138,890.38,616.8379" style="stroke:#46565D;stroke-width:1;"/><text fill="#000000" font-family="sans-serif" font-size="14" lengthAdjust="spacing" textLength="18.8719" x="1193.91" y="726.1239">vts</text><text fill="#000000" font-family="sans-serif" font-size="14" lengthAdjust="spacing" textLength="8.008" x="1375.1312" y="791.1472">1</text></g><!--reverse link QPitchAudioProcessor to PitchDetector--><g class="link" data-entity-1="ent0006" data-entity-2="ent0009" data-link-type="composition" data-source-line="53" id="lnk20"><path codeLine="53" d="M552.8494,634.0279 C458.7194,675.5179 353.02,722.0979 265.46,760.6779" fill="none" id="QPitchAudioProcessor-backto-PitchDetector" style="stroke:#46565D;stroke-width:1;"/><polygon fill="#46565D" points="563.83,629.1879,556.7264,627.9477,552.8494,634.0279,559.953,635.2681,563.83,629.1879" style="stroke:#46565D;stroke-width:1;"/><text fill="#000000" font-family="sans-serif" font-size="14" lengthAdjust="spacing" textLength="91.5596" x="380.16" y="726.1239">input / output</text><text fill="#000000" font-family="sans-serif" font-size="14" lengthAdjust="spacing" textLength="8.008" x="271.851" y="748.8875">2</text></g><!--reverse link QPitchAudioProcessor to ScaleQuantizer--><g class="link" data-entity-1="ent0006" data-entity-2="ent0010" data-link-type="composition" data-source-line="54" id="lnk21"><path codeLine="54" d="M564.6629,687.9633 C529.7729,716.0533 503.69,737.0379 474.28,760.7179" fill="none" id="QPitchAudioProcessor-backto-ScaleQuantizer" style="stroke:#46565D;stroke-width:1;"/><polygon fill="#46565D" points="574.01,680.4379,566.828,681.0849,564.6629,687.9633,571.8449,687.3163,574.01,680.4379" style="stroke:#46565D;stroke-width:1;"/><text fill="#000000" font-family="sans-serif" font-size="14" lengthAdjust="spacing" textLength="8.008" x="473.9439" y="748.9321">1</text></g><!--reverse link QPitchAudioProcessor to PitchShifter--><g class="link" data-entity-1="ent0006" data-entity-2="ent0011" data-link-type="composition" data-source-line="55" id="lnk22"><path codeLine="55" d="M721.8047,692.4289 C720.7147,720.5189 720.09,737.0379 719.18,760.7179" fill="none" id="QPitchAudioProcessor-backto-PitchShifter" style="stroke:#46565D;stroke-width:1;"/><polygon fill="#46565D" points="722.27,680.4379,718.0404,686.2783,721.8047,692.4289,726.0343,686.5885,722.27,680.4379" style="stroke:#46565D;stroke-width:1;"/><text fill="#000000" font-family="sans-serif" font-size="14" lengthAdjust="spacing" textLength="8.008" x="710.9694" y="748.9321">1</text></g><!--reverse link PitchShifter to RubberBand--><g class="link" data-entity-1="ent0011" data-entity-2="ent0012" data-link-type="composition" data-source-line="56" id="lnk23"><path codeLine="56" d="M717,887.5679 C717,916.6079 717,937.7179 717,956.1379" fill="none" id="PitchShifter-backto-RubberBand" style="stroke:#46565D;stroke-width:1;"/><polygon fill="#46565D" points="717,875.5679,713,881.5679,717,887.5679,721,881.5679,717,875.5679" style="stroke:#46565D;stroke-width:1;"/><text fill="#000000" font-family="sans-serif" font-size="14" lengthAdjust="spacing" textLength="71.7357" x="718" y="921.3939">unique_ptr</text><text fill="#000000" font-family="sans-serif" font-size="14" lengthAdjust="spacing" textLength="8.008" x="707.7255" y="944.2129">1</text></g><!--link QPitchAudioProcessorEditor to QPitchAudioProcessor--><g class="link" data-entity-1="ent0007" data-entity-2="ent0006" data-link-type="dependency" data-source-line="57" id="lnk24"><path codeLine="57" d="M618.95,225.2979 C588.67,241.6879 559.32,264.1579 542,294.2779 C515.21,340.8579 531.2693,384.8817 566.3693,427.3817" fill="none" id="QPitchAudioProcessorEditor-to-QPitchAudioProcessor" style="stroke:#46565D;stroke-width:1;"/><polygon fill="#46565D" points="570.19,432.0079,567.5431,422.5214,567.0061,428.1527,561.3748,427.6157,570.19,432.0079" style="stroke:#46565D;stroke-width:1;"/><text fill="#000000" font-family="sans-serif" font-size="14" lengthAdjust="spacing" textLength="63.3357" x="543" y="323.8039">reference</text></g><!--reverse link QPitchAudioProcessorEditor to Piano--><g class="link" data-entity-1="ent0007" data-entity-2="ent0013" data-link-type="composition" data-source-line="58" id="lnk25"><path codeLine="58" d="M727,245.4779 C727,265.9779 727,277.1379 727,293.9179" fill="none" id="QPitchAudioProcessorEditor-backto-Piano" style="stroke:#46565D;stroke-width:1;"/><polygon fill="#46565D" points="727,233.4779,723,239.4779,727,245.4779,731,239.4779,727,233.4779" style="stroke:#46565D;stroke-width:1;"/></g><!--reverse link QPitchAudioProcessorEditor to Attachments--><g class="link" data-entity-1="ent0007" data-entity-2="ent0014" data-link-type="composition" data-source-line="59" id="lnk26"><path codeLine="59" d="M847.379,192.4771 C1013.079,202.2871 1307.11,228.2779 1392,294.2779 C1416.78,313.5379 1426.49,351.2579 1430.07,371.9679" fill="none" id="QPitchAudioProcessorEditor-backto-Attachments" style="stroke:#46565D;stroke-width:1;"/><polygon fill="#46565D" points="835.4,191.7679,841.1531,196.1155,847.379,192.4771,841.6259,188.1295,835.4,191.7679" style="stroke:#46565D;stroke-width:1;"/></g><!--link Attachments to State--><g class="link" data-entity-1="ent0014" data-entity-2="ent0008" data-link-type="dependency" data-source-line="60" id="lnk27"><path codeLine="60" d="M1432.1,402.6779 C1432.56,467.9379 1434.3978,731.5981 1434.8578,796.9681" fill="none" id="Attachments-to-State" style="stroke:#46565D;stroke-width:1;"/><polygon fill="#46565D" points="1434.9,802.9679,1438.8366,793.94,1434.8648,797.968,1430.8368,793.9963,1434.9,802.9679" style="stroke:#46565D;stroke-width:1;"/></g><!--link Piano to QPitchAudioProcessor--><g class="link" data-entity-1="ent0013" data-entity-2="ent0006" data-link-type="dependency" data-source-line="61" id="lnk28"><path codeLine="61" d="M727,342.8279 C727,364.3279 727,391.9279 727,426.1079" fill="none" id="Piano-to-QPitchAudioProcessor" style="stroke:#46565D;stroke-width:1;"/><polygon fill="#46565D" points="727,432.1079,731,423.1079,727,427.1079,723,423.1079,727,432.1079" style="stroke:#46565D;stroke-width:1;"/><text fill="#000000" font-family="sans-serif" font-size="14" lengthAdjust="spacing" textLength="168.9514" x="728" y="392.8739">note edits / pitch markers</text></g><?plantuml-src ZLRRRXit47tVhvZgQTrAQf97eIWGgoxSn4aKIybJW88YHrhMl6n8hXCf3T2Fw1VsIpeaToMlivRpOb0xPouySsRe7wJXgX48FkmKJkj6goB8e13UBcJW5JoRFe7__laNQaT8MJC5N37lqHUL93VKTTY1Hhr6vujaWj5V3SVPx7aZf5quoz5xwqR0FFG_5T84T1l6STZbFLCDhXpYCh10rYlf0nhCeReVft9U21a6CsT3ttKbTHiwdLfZPg7l3LyAW9zgXpLpkB8BnNQbPxfMU4rrZY6V_GBTkRByvYoZatFwKAwRpGRT6BGKyXlh-QwE_8flKLiCYOa_pCOwpOAqfXGii6Jq3nYf7Bd7d8Kvff4edrVCR2c356EuZIHt4UQD3rQ_jW4l35ihWXWwpoCJOy3yAM4Tzj1-PPUSAIoxEd-ZD3oWkDoNPp23ZR8ijAOtJQYRC61OCKT_UuQl9xgGUvXxGUNG9KNPNfDqLMuTgol9VVeKOaVdJAar8_hF3d6_GtP94UdK-gHIyltkIQ4d0iq-ftOkE_Q9iDyTVcpGyDrrvB_Kqbpk4_9odo0YHKq93jrlnNIVhBar6ve_mt60hjIBjmqpWPAtDLRxbNr5IYghVIzMLDVA4kknqpqB5NoDL4DCSgWykfFnYoT69F-QHHdJlMB-nj-XDjrYMSbDmEzaQGoST6bG-RipKKf3SY7vsQGRVs1a32wgV0n9xoRuJdjN59agNMPOeeS4SL3jtVPVDslQM-VCYDdiUBwIjzXMdhf_j7H-wSOlSRUsp8aFfiIiHOEqamHmgsjhq8IpvBwGpDZEyyMx-GKS1X5O28nNch0-hwdZx-BUqldbxybaS12ARXKIP3eTXWoEpeCHs_MOzk2ZgC4D-IFvZ9wEyk1G0sxfFWy3dutkJLNi63KRVcwx_aYIdjnFO-_AikXfj4CSkqrbD4QIxl-imt3ObiZ9vDVXXs86hfkWK_unTLR98w2UF8xdL43UKIdCgOBYc4FKgoTsw_J4Q-PkukkTJ6iRQAc3tGmB2U3D9-D1k1qDOc9EGAHA8Bs2A2PaWBow_9J0YsQjfA_GjwaSCa4jzH0gPvjjHGDWjUHvwIIF_0g0HqLIe4SiHVVQsb19imL5iqdY87_fytyYqm894Ml_7m00?></g></svg>